<?xml version="1.0" standalone="no"?>
<!DOCTYPE svg PUBLIC "-//W3C//DTD SVG 20010904//EN"
 "http://www.w3.org/TR/2001/REC-SVG-20010904/DTD/svg10.dtd">
<svg version="1.0" xmlns="http://www.w3.org/2000/svg"
 width="1080.000000pt" height="1065.000000pt" viewBox="0 0 1080.000000 1065.000000"
 preserveAspectRatio="xMidYMid meet">

<g transform="translate(0.000000,1065.000000) scale(0.100000,-0.100000)"
fill="#000000" stroke="none">
<path d="M6663 10214 c-70 -52 -135 -100 -143 -107 -8 -7 -47 -35 -85 -64 -39
-28 -79 -60 -88 -71 -22 -24 -14 -31 76 -62 90 -32 94 -38 74 -104 -10 -29
-17 -64 -18 -77 0 -13 -3 -18 -6 -11 -3 8 -12 -3 -23 -25 -10 -21 -28 -58 -40
-83 -12 -25 -28 -62 -36 -84 -12 -33 -12 -37 1 -32 20 7 19 -13 -2 -36 -9 -10
-13 -21 -9 -25 4 -5 12 0 17 9 6 10 16 14 30 11 12 -3 25 0 29 7 7 11 11 10
24 -3 9 -9 12 -18 7 -21 -4 -3 -11 -27 -15 -54 -3 -27 -9 -52 -12 -55 -6 -6
-48 -122 -85 -232 -10 -33 -23 -69 -28 -80 -6 -11 -20 -49 -32 -85 -12 -36
-39 -108 -61 -160 -22 -52 -46 -116 -54 -141 -8 -25 -22 -57 -32 -70 -10 -13
-22 -32 -25 -43 -5 -12 -12 -16 -25 -11 -9 4 -24 8 -32 9 -42 3 -102 78 -80
100 8 8 10 7 5 -6 -11 -29 9 -20 23 10 7 16 9 28 3 30 -5 2 -1 12 10 23 10 10
19 32 19 48 0 16 6 36 13 43 7 7 12 23 11 35 -1 13 5 28 12 34 8 6 14 17 14
24 0 8 4 15 8 17 4 2 25 49 46 106 21 56 42 102 47 102 5 0 9 9 9 19 0 11 4
22 9 25 5 3 12 17 15 31 4 14 17 49 30 78 13 28 34 77 46 107 12 30 29 72 38
93 17 41 12 61 -6 24 -6 -12 -35 -78 -66 -147 -30 -69 -100 -226 -156 -350
-57 -124 -117 -259 -135 -300 -35 -80 -113 -254 -162 -360 -17 -36 -59 -128
-93 -205 -34 -77 -91 -198 -125 -270 -34 -71 -75 -159 -91 -195 -16 -36 -48
-103 -72 -150 -24 -47 -55 -112 -69 -145 -14 -33 -61 -134 -105 -225 -44 -91
-138 -292 -209 -447 -71 -156 -133 -291 -138 -300 -5 -10 -34 -72 -65 -138
-30 -66 -98 -214 -150 -328 -53 -114 -96 -209 -96 -211 0 -2 -24 -55 -54 -117
-53 -115 -84 -181 -132 -286 -15 -32 -60 -128 -101 -213 -42 -85 -91 -188
-110 -228 -19 -40 -40 -71 -46 -69 -11 3 -42 75 -141 327 -67 170 -277 687
-396 975 -34 83 -104 251 -155 375 -50 124 -113 272 -138 330 -25 58 -66 155
-90 215 -25 61 -72 174 -105 251 -90 210 -104 256 -110 367 -7 141 18 186 133
239 27 12 30 17 30 63 l0 50 -650 0 -650 0 -3 -47 -3 -47 59 -30 c117 -59 236
-165 308 -273 72 -110 137 -243 249 -518 24 -58 75 -184 115 -280 40 -96 92
-222 115 -280 24 -58 64 -154 90 -215 25 -60 67 -159 92 -220 25 -60 49 -119
54 -130 17 -38 121 -291 174 -420 29 -71 94 -231 145 -355 176 -429 252 -616
322 -795 183 -466 209 -531 218 -550 5 -11 30 -71 55 -134 25 -63 50 -120 56
-128 9 -10 52 -13 179 -13 l167 0 16 38 c9 20 54 136 101 257 99 258 211 548
296 765 34 85 97 247 140 360 43 113 103 270 134 350 57 145 141 364 263 685
35 94 86 226 113 295 105 267 140 360 140 368 0 8 41 115 60 157 5 11 16 40
24 65 8 25 24 70 36 100 12 30 39 102 60 160 21 58 57 152 80 210 23 58 45
116 50 130 22 68 115 317 200 540 29 74 69 185 91 245 22 61 43 119 48 130 25
54 250 677 434 1204 39 112 77 206 84 208 7 3 49 -16 94 -42 50 -29 85 -43 91
-37 8 8 5 102 -18 485 -5 76 -11 107 -20 107 -7 0 -70 -43 -141 -96z m-146
-436 c-3 -7 -5 -2 -5 12 0 14 2 19 5 13 2 -7 2 -19 0 -25z m-61 -134 c-4 -9
-9 -15 -11 -12 -3 3 -3 13 1 22 4 9 9 15 11 12 3 -3 3 -13 -1 -22z m-30 -66
c-9 -12 -16 -19 -16 -15 0 11 24 47 28 42 2 -2 -3 -14 -12 -27z m-29 -60 c-3
-8 -6 -5 -6 6 -1 11 2 17 5 13 3 -3 4 -12 1 -19z m-407 -998 c0 -16 -4 -30 -8
-30 -5 0 -7 14 -4 30 2 17 6 30 8 30 2 0 4 -13 4 -30z m90 -26 c0 -8 -5 -12
-10 -9 -6 4 -8 11 -5 16 9 14 15 11 15 -7z m17 -46 c-3 -8 -6 -5 -6 6 -1 11 2
17 5 13 3 -3 4 -12 1 -19z m-3947 -522 c41 -2 116 -9 165 -16 50 -6 133 -10
185 -9 90 3 234 -7 273 -18 17 -4 17 -6 2 -17 -17 -12 -11 -45 9 -47 6 -1 22
-2 35 -2 19 -2 27 -10 33 -34 5 -18 13 -33 18 -33 14 0 12 74 -2 88 -9 9 -8
12 6 12 9 0 29 -13 43 -30 27 -32 43 -38 43 -16 0 8 7 16 15 20 8 3 15 10 15
16 0 5 -7 10 -15 10 -8 0 -15 5 -15 11 0 8 -24 9 -80 4 -70 -6 -80 -5 -80 9 0
13 13 16 80 16 44 0 80 -3 80 -8 0 -4 10 -12 23 -17 30 -14 34 -49 7 -68 -16
-11 -23 -28 -25 -63 -2 -26 0 -42 4 -36 3 5 4 -25 2 -69 -2 -53 0 -79 8 -79 6
0 11 -13 11 -28 0 -16 3 -31 6 -35 4 -3 16 -34 28 -69 21 -58 64 -159 86 -200
5 -9 25 -58 45 -108 20 -51 49 -119 65 -153 15 -34 43 -98 61 -142 18 -44 36
-81 41 -83 4 -2 8 -9 8 -16 0 -6 16 -50 35 -96 20 -47 47 -114 61 -150 28 -72
35 -89 57 -140 39 -90 51 -120 74 -190 14 -41 29 -79 33 -85 4 -5 16 -35 26
-65 10 -30 22 -57 25 -60 3 -3 9 -22 13 -42 4 -20 10 -38 14 -40 17 -7 38 -74
31 -98 l-7 -25 -1 25 c-3 62 -10 70 -62 70 -36 0 -51 4 -56 15 -4 12 -16 15
-47 12 -35 -4 -44 -1 -63 22 -22 26 -22 26 -23 4 0 -14 -6 -23 -15 -23 -9 0
-15 9 -15 25 0 20 -5 25 -25 25 -16 0 -25 6 -25 15 0 10 -11 15 -37 16 -56 2
-56 2 -88 34 l-30 30 -3 -32 c-2 -18 -5 -33 -7 -33 -10 0 -70 69 -67 78 2 6
-6 8 -18 5 -14 -4 -30 3 -47 18 -18 17 -24 19 -20 8 7 -20 -10 -39 -29 -32 -9
3 -14 20 -14 45 0 36 -2 39 -16 27 -15 -12 -16 -11 -10 8 9 27 -2 52 -14 33
-11 -17 -42 56 -36 83 3 12 3 16 0 9 -8 -17 -24 -5 -24 19 0 11 -4 17 -10 14
-6 -4 -10 5 -10 19 0 14 -4 26 -10 26 -12 0 -14 26 -2 33 4 2 2 3 -3 2 -6 -2
-30 45 -54 104 -24 58 -61 143 -82 189 -22 45 -39 89 -39 97 0 8 -4 15 -10 15
-5 0 -10 6 -10 13 0 6 -19 55 -41 107 -23 52 -73 173 -111 269 -67 167 -174
401 -188 411 -4 3 -21 33 -40 67 -18 34 -40 65 -49 68 -9 3 -27 20 -39 39 -13
19 -36 43 -50 52 -15 10 -33 24 -40 31 -31 31 -80 63 -95 63 -10 0 -17 5 -17
11 0 5 -13 15 -30 20 -16 6 -30 16 -30 23 0 26 24 35 79 30 31 -2 90 -6 131
-8z m2952 -1333 c-7 -12 -6 -22 2 -29 10 -9 13 -5 13 17 0 44 11 47 44 12 16
-18 35 -30 42 -28 6 2 26 -13 42 -35 17 -21 36 -39 43 -40 23 0 42 -27 42 -59
0 -16 4 -32 9 -35 7 -5 -2 -36 -33 -121 -5 -11 -23 -56 -41 -100 -18 -44 -47
-120 -65 -170 -65 -183 -145 -384 -170 -427 -5 -10 -10 -23 -10 -31 0 -7 -9
-29 -20 -50 -11 -20 -20 -44 -20 -52 0 -8 -9 -23 -20 -32 -11 -9 -24 -41 -30
-70 -6 -29 -16 -53 -21 -53 -5 0 -7 12 -4 28 6 24 5 25 -7 10 -7 -9 -18 -24
-24 -34 -10 -17 -14 -15 -46 16 -40 40 -71 60 -92 60 -8 0 -16 6 -19 13 -3 8
-29 21 -59 31 -77 24 -94 65 -61 148 21 54 22 56 34 38 9 -12 10 -11 5 4 -7
19 18 85 96 261 22 50 43 99 48 110 5 11 38 81 73 155 36 74 76 160 89 190 46
102 81 170 89 170 5 0 6 7 2 16 -4 10 1 17 16 21 11 3 21 13 21 22 0 8 8 35
18 59 12 31 18 37 20 23 2 -11 -1 -28 -6 -38z m275 -95 c-3 -8 -6 -5 -6 6 -1
11 2 17 5 13 3 -3 4 -12 1 -19z m-10 -40 c-3 -8 -6 -5 -6 6 -1 11 2 17 5 13 3
-3 4 -12 1 -19z m-787 -998 c0 -5 -4 -10 -10 -10 -5 0 -10 5 -10 10 0 6 5 10
10 10 6 0 10 -4 10 -10z m307 -222 c-3 -7 -5 -2 -5 12 0 14 2 19 5 13 2 -7 2
-19 0 -25z"/>
<path d="M2618 7873 c7 -3 16 -2 19 1 4 3 -2 6 -13 5 -11 0 -14 -3 -6 -6z"/>
<path d="M2705 7850 c3 -5 8 -10 11 -10 2 0 4 5 4 10 0 6 -5 10 -11 10 -5 0
-7 -4 -4 -10z"/>
<path d="M2923 7755 c0 -8 3 -13 5 -10 3 3 11 0 18 -6 10 -8 13 -6 11 10 -1
24 -34 29 -34 6z"/>
<path d="M3018 6050 c2 -22 6 -40 8 -40 2 0 4 18 4 40 0 22 -3 40 -8 40 -4 0
-6 -18 -4 -40z"/>
<path d="M3420 5920 c0 -5 5 -10 10 -10 6 0 10 5 10 10 0 6 -4 10 -10 10 -5 0
-10 -4 -10 -10z"/>
<path d="M3610 5860 c0 -5 5 -10 10 -10 6 0 10 5 10 10 0 6 -4 10 -10 10 -5 0
-10 -4 -10 -10z"/>
<path d="M5302 6390 c7 -10 14 -18 15 -16 6 6 -9 36 -18 36 -5 0 -4 -9 3 -20z"/>
<path d="M6085 8540 c3 -5 10 -10 16 -10 5 0 9 5 9 10 0 6 -7 10 -16 10 -8 0
-12 -4 -9 -10z"/>
<path d="M7025 7235 c-235 -33 -388 -77 -562 -161 -175 -84 -230 -120 -378
-248 -123 -107 -233 -221 -285 -296 -13 -19 -27 -37 -31 -40 -16 -12 -114
-172 -145 -238 -53 -112 -109 -266 -143 -392 -47 -176 -63 -308 -68 -540 -6
-261 5 -364 63 -597 111 -446 309 -745 654 -985 342 -237 876 -363 1390 -328
406 28 684 116 967 309 175 118 166 106 159 215 -3 50 -8 254 -12 452 -7 431
-4 452 71 502 46 31 108 50 180 56 72 6 71 3 65 129 l-5 112 -668 3 c-455 2
-674 -1 -687 -8 -18 -10 -20 -21 -20 -113 0 -67 4 -107 12 -115 7 -7 40 -12
78 -12 129 0 224 -50 254 -133 12 -34 17 -134 25 -516 6 -283 6 -481 1 -491
-16 -30 -217 -93 -352 -110 -185 -23 -331 -9 -508 47 -302 97 -499 244 -648
485 -87 141 -178 419 -221 681 -37 220 -37 700 0 917 42 248 132 530 213 665
150 251 344 402 616 481 86 25 111 28 255 28 145 1 169 -2 259 -27 98 -27 286
-112 286 -128 0 -5 7 -9 16 -9 25 0 245 -227 295 -305 74 -113 156 -274 186
-365 16 -47 33 -91 37 -99 7 -11 29 -13 104 -8 52 4 97 9 100 12 6 6 6 20 -9
425 -12 344 -4 319 -135 431 -163 142 -404 248 -678 300 -146 28 -575 36 -731
14z m-1247 -1043 c23 -23 62 -35 62 -19 0 6 14 -5 31 -26 21 -25 37 -36 48
-32 11 3 25 -5 39 -25 26 -35 42 -39 42 -10 0 24 24 17 59 -17 13 -13 33 -23
43 -23 13 0 18 -5 15 -14 -4 -10 0 -14 12 -13 11 1 17 7 14 14 -3 7 0 13 5 13
6 0 13 8 16 18 2 9 5 4 4 -13 0 -16 1 -39 2 -50 2 -17 3 -16 10 5 16 50 11
-65 -7 -151 -26 -125 -26 -832 -1 -998 10 -63 16 -117 13 -119 -3 -3 -5 3 -6
14 0 18 -1 18 -8 -1 -8 -20 -8 -20 -15 2 -5 15 -20 24 -56 33 -32 8 -54 20
-64 35 -9 13 -24 23 -34 22 -28 -2 -82 24 -82 39 0 16 -11 18 -26 5 -5 -5 -26
-12 -46 -15 -31 -6 -42 -2 -70 22 -35 30 -87 56 -96 48 -2 -3 -19 2 -36 12
-17 9 -41 17 -53 19 -12 1 -32 12 -44 24 -22 22 -23 22 -29 4 -6 -16 -8 -14
-13 10 -3 17 -3 43 0 59 4 21 3 27 -5 22 -7 -4 -12 -22 -12 -41 0 -19 -4 -36
-8 -39 -13 -8 -33 204 -33 350 1 226 44 464 122 664 16 41 29 81 29 88 0 6 5
12 10 12 6 0 10 5 10 12 0 6 10 27 23 45 20 29 27 33 70 33 32 0 53 -6 65 -18z
m2297 -1048 c220 -4 419 -7 443 -8 23 0 42 -4 42 -7 0 -4 18 -5 39 -2 37 5
101 -13 101 -28 0 -4 14 -9 31 -13 21 -4 30 -11 28 -23 0 -10 -1 -25 0 -34 1
-21 39 -32 43 -13 2 8 8 10 15 6 16 -10 5 -50 -16 -56 -67 -18 -70 -17 -78 15
l-8 30 -24 -25 c-24 -26 -24 -26 -3 -26 12 0 22 -4 22 -10 0 -5 -4 -10 -9 -10
-12 0 -70 -56 -93 -90 -17 -23 -18 -58 -11 -512 l6 -486 -51 -32 c-29 -17 -52
-36 -52 -41 0 -15 -87 -51 -109 -44 -11 3 -23 0 -28 -7 -4 -7 -16 -19 -26 -27
-17 -13 -18 -12 -12 15 4 19 3 24 -3 16 -13 -19 -35 -12 -77 26 -18 16 -35 15
-35 -3 0 -9 6 -12 15 -9 11 5 15 -1 15 -25 0 -24 -4 -31 -19 -31 -16 0 -20 8
-23 43 -3 37 -6 42 -27 41 -16 -1 -34 10 -49 27 -14 18 -32 28 -45 26 -17 -1
-22 3 -22 20 0 12 -13 35 -29 52 -28 29 -25 38 9 31 6 -1 1 9 -11 22 -17 18
-21 37 -23 92 0 38 -6 75 -13 83 -8 10 -13 118 -17 346 -6 285 -9 336 -23 363
-19 34 -65 77 -108 99 -34 17 -168 51 -217 54 -9 1 -13 24 -13 80 0 83 5 92
45 86 11 -2 200 -7 420 -11z m110 -1384 c-3 -5 -10 -10 -16 -10 -5 0 -9 5 -9
10 0 6 7 10 16 10 8 0 12 -4 9 -10z m92 -76 c-3 -3 -12 -4 -19 -1 -8 3 -5 6 6
6 11 1 17 -2 13 -5z m-28 -23 c9 -6 10 -10 2 -16 -15 -8 -41 1 -41 15 0 12 20
13 39 1z"/>
<path d="M5666 6175 c-3 -8 -1 -15 4 -15 6 0 10 7 10 15 0 8 -2 15 -4 15 -2 0
-6 -7 -10 -15z"/>
<path d="M6080 4820 c0 -5 7 -10 16 -10 8 0 12 5 9 10 -3 6 -10 10 -16 10 -5
0 -9 -4 -9 -10z"/>
<path d="M4305 3131 c-3 -6 32 -120 77 -255 l83 -246 82 0 82 0 20 63 c43 132
94 285 118 349 34 88 29 99 -44 96 -67 -3 -56 15 -123 -213 -23 -77 -45 -144
-49 -148 -8 -8 -53 124 -97 278 -9 33 -21 66 -26 73 -12 14 -114 17 -123 3z"/>
<path d="M4895 3132 c-3 -3 -5 -117 -5 -254 l0 -248 175 0 175 0 0 50 0 50
-115 0 -115 0 0 50 0 49 108 3 107 3 3 48 3 47 -111 0 -111 0 3 53 3 52 113 3
113 3 -3 47 -3 47 -167 1 c-92 1 -170 -1 -173 -4z"/>
<path d="M5367 3133 c-4 -3 -7 -118 -7 -255 l0 -248 60 0 59 0 3 148 3 147 92
-131 c51 -73 96 -139 99 -148 5 -12 20 -16 60 -16 l54 0 -2 253 -3 252 -55 0
-55 0 -5 -145 -5 -145 -36 50 c-19 28 -66 94 -103 148 l-67 97 -43 0 c-23 0
-46 -3 -49 -7z"/>
<path d="M5917 3133 c-4 -3 -7 -87 -7 -187 0 -159 2 -184 20 -220 73 -150 356
-131 399 26 8 28 11 104 9 213 l-3 170 -55 0 -55 0 -5 -178 -5 -179 -28 -24
c-39 -33 -99 -33 -132 1 -25 24 -25 27 -25 198 0 150 -2 176 -16 181 -21 8
-89 8 -97 -1z"/>
<path d="M6576 3133 c-66 -17 -126 -87 -126 -147 0 -74 53 -118 185 -152 76
-19 103 -43 87 -78 -23 -51 -120 -45 -157 10 -17 24 -28 30 -67 32 -37 3 -49
0 -54 -12 -17 -43 42 -126 103 -147 57 -19 176 -14 220 8 78 40 106 129 62
200 -24 39 -71 65 -149 83 -30 7 -65 19 -77 26 -26 17 -30 55 -8 74 31 26 125
7 125 -25 0 -12 14 -15 60 -15 57 0 60 1 60 24 0 32 -43 82 -91 106 -37 19
-123 25 -173 13z"/>
<path d="M3595 2256 c-60 -28 -87 -56 -114 -116 -25 -55 -27 -145 -5 -219 33
-112 144 -176 268 -153 113 21 175 93 179 209 l2 58 -95 5 c-52 3 -101 4 -107
2 -8 -3 -13 -21 -13 -43 l0 -39 45 0 c61 0 70 -22 27 -62 -35 -30 -86 -37
-137 -18 -41 15 -69 89 -62 162 6 71 27 105 74 125 50 20 97 10 125 -27 19
-27 28 -30 74 -30 29 0 55 4 58 8 8 13 -29 85 -55 108 -64 57 -180 70 -264 30z"/>
<path d="M4170 2266 c-5 -5 -10 -16 -10 -23 0 -7 -4 -21 -9 -31 -10 -18 -89
-249 -127 -369 l-22 -73 64 0 c61 0 64 1 70 28 4 15 13 39 21 55 13 26 16 27
92 27 87 0 92 -3 112 -67 l12 -43 64 0 c34 0 63 1 63 3 0 14 -163 484 -172
494 -13 16 -142 15 -158 -1z m114 -212 l23 -79 -28 -3 c-16 -2 -42 -2 -58 0
l-28 3 21 70 c21 71 35 100 42 92 2 -2 15 -39 28 -83z"/>
<path d="M4605 2272 c-3 -3 -5 -117 -5 -254 l0 -248 60 0 60 0 0 85 0 85 34 0
c32 0 35 -4 77 -85 l44 -85 62 0 c35 0 63 2 63 6 0 3 -21 44 -47 92 l-46 87
35 36 c43 42 58 107 39 170 -26 86 -108 122 -271 118 -55 -1 -102 -5 -105 -7z
m232 -107 c27 -19 37 -59 22 -88 -17 -32 -28 -37 -86 -37 l-53 0 0 70 0 70 48
0 c26 0 57 -7 69 -15z"/>
<path d="M5113 2273 c-10 -3 -13 -64 -13 -254 l0 -249 55 0 55 0 0 144 c0 86
4 147 10 151 6 3 10 1 10 -5 0 -5 17 -52 39 -103 21 -50 46 -113 55 -139 17
-46 19 -48 55 -48 l38 0 58 145 c31 80 61 148 66 151 5 3 9 -61 9 -145 l0
-151 55 0 55 0 -2 252 -3 253 -68 3 -68 3 -25 -58 c-32 -73 -57 -132 -87 -207
l-25 -60 -16 33 c-10 17 -32 72 -51 121 -38 99 -63 152 -77 161 -12 7 -109 9
-125 2z"/>
<path d="M5793 2273 c-10 -4 -13 -63 -13 -254 l0 -249 175 0 175 0 0 44 c0 31
-5 46 -16 50 -9 3 -60 6 -115 6 l-99 0 0 50 0 50 105 0 105 0 0 50 0 50 -106
0 -105 0 3 53 3 52 113 3 112 3 0 43 c0 30 -5 46 -15 50 -17 6 -303 5 -322 -1z"/>
<path d="M6250 2024 l0 -254 60 0 60 0 0 140 c0 77 3 140 8 140 4 0 14 -11 22
-25 8 -13 51 -76 95 -139 l80 -115 53 -1 52 0 -2 253 -3 252 -57 3 -58 3 0
-145 c0 -80 -3 -146 -7 -146 -5 1 -25 26 -47 58 -21 31 -65 96 -97 143 l-58
85 -51 1 -50 2 0 -255z"/>
<path d="M6793 2273 c-8 -3 -13 -23 -13 -49 l0 -44 75 0 75 0 0 -205 0 -205
60 0 60 0 2 203 3 202 75 5 75 5 0 45 0 45 -200 2 c-110 1 -206 -1 -212 -4z"/>
<path d="M7406 2263 c-49 -20 -73 -44 -92 -89 -39 -92 32 -173 171 -199 89
-16 124 -63 73 -99 -46 -33 -148 -5 -148 40 0 8 -10 15 -22 15 -39 2 -91 -1
-96 -5 -10 -11 13 -71 39 -101 84 -95 322 -76 359 29 37 106 -22 188 -154 214
-70 14 -106 35 -106 62 0 31 28 50 75 50 35 0 48 -5 63 -25 17 -21 28 -25 76
-25 31 0 56 2 56 5 0 20 -34 79 -57 100 -52 46 -162 59 -237 28z"/>
<path d="M3182 1534 c-27 -19 -28 -48 -2 -74 20 -20 33 -20 2369 -20 2123 0
2351 2 2365 16 21 21 20 57 -2 77 -17 16 -196 17 -2363 17 -2106 0 -2347 -2
-2367 -16z"/>
<path d="M3287 1194 c-4 -4 -7 -47 -7 -96 l0 -88 54 0 c38 0 56 4 59 14 5 11
-4 16 -36 18 l-42 3 -2 69 c-1 65 -11 95 -26 80z"/>
<path d="M3447 1193 c-4 -3 -7 -36 -7 -73 0 -57 3 -70 23 -88 34 -32 91 -30
113 3 16 25 22 134 8 156 -13 21 -24 -6 -24 -57 0 -63 -13 -94 -38 -94 -33 0
-46 18 -48 67 -1 26 -2 58 -3 71 -1 22 -11 28 -24 15z"/>
<path d="M3650 1190 c0 -6 10 -28 22 -49 l22 -38 -28 -46 c-26 -45 -26 -47 -7
-47 13 0 27 12 36 30 9 17 19 30 23 30 4 0 16 -13 25 -30 10 -16 25 -30 33
-30 19 0 18 9 -6 48 -11 18 -20 39 -20 47 0 8 9 29 20 47 24 39 25 48 6 48 -8
0 -24 -17 -36 -37 l-21 -36 -19 28 c-21 32 -50 52 -50 35z"/>
<path d="M3973 1193 c-9 -3 -13 -26 -13 -68 0 -71 -14 -91 -55 -81 -24 6 -25
10 -25 76 0 65 -2 70 -21 70 -21 0 -21 -4 -17 -77 6 -87 18 -103 80 -103 51 0
70 30 73 115 3 66 0 76 -22 68z"/>
<path d="M4045 1156 c-10 -73 -2 -140 17 -144 12 -2 17 5 20 29 4 45 22 46 46
4 12 -19 28 -35 37 -35 19 0 19 14 0 44 -14 22 -14 25 1 40 9 10 17 28 17 42
0 39 -26 58 -82 59 l-50 1 -6 -40z m90 -2 c22 -23 14 -38 -23 -42 -30 -3 -32
-1 -32 27 0 24 4 31 19 31 11 0 27 -7 36 -16z"/>
<path d="M4226 1191 c-3 -5 8 -33 24 -62 16 -30 30 -69 30 -86 0 -26 4 -33 19
-33 16 0 18 5 15 30 -4 23 4 45 30 89 41 66 42 70 21 67 -9 -1 -27 -19 -41
-39 -28 -42 -36 -41 -54 2 -12 30 -35 47 -44 32z"/>
<path d="M4496 1193 c-13 -13 -5 -22 22 -25 27 -3 27 -4 30 -80 2 -59 6 -78
17 -78 11 0 15 19 17 78 3 76 3 77 31 80 15 2 27 9 27 17 0 10 -17 14 -69 14
-38 0 -71 -3 -75 -6z"/>
<path d="M4690 1197 c0 -1 -3 -44 -7 -94 -6 -90 -5 -93 16 -93 18 0 21 6 21
40 l0 40 40 0 c42 0 43 -2 43 -62 0 -11 7 -18 18 -18 17 0 19 9 19 89 0 50 -4
92 -8 95 -12 7 -31 -8 -30 -24 3 -45 -2 -50 -42 -50 -39 0 -40 1 -40 34 0 21
-6 36 -15 40 -8 3 -15 4 -15 3z"/>
<path d="M4947 1193 c-3 -4 -19 -47 -35 -95 -29 -85 -29 -88 -10 -88 11 0 22
8 25 19 9 34 77 34 88 0 4 -10 15 -19 25 -19 17 0 16 7 -13 88 -17 48 -31 88
-31 88 -4 7 -45 13 -49 7z m38 -85 c6 -24 4 -28 -15 -28 -18 0 -21 4 -16 23 3
12 6 29 6 37 0 21 17 0 25 -32z"/>
<path d="M5083 1193 c-22 -8 -14 -23 11 -23 30 0 36 -16 36 -96 0 -49 3 -64
15 -64 11 0 15 18 17 78 3 76 3 77 31 80 16 2 27 8 24 15 -4 12 -108 19 -134
10z"/>
<path d="M5499 1189 c-10 -5 -25 -31 -35 -59 -10 -27 -22 -50 -27 -50 -4 0
-19 25 -32 55 -18 40 -30 55 -45 55 -18 0 -20 -7 -21 -72 0 -40 -2 -81 -4 -90
-2 -12 3 -18 16 -18 17 0 19 8 20 63 l0 62 16 -35 c46 -106 52 -109 86 -33 26
58 26 58 27 23 1 -19 1 -46 0 -58 -1 -18 3 -23 17 -20 16 3 18 13 17 86 -1 88
-8 107 -35 91z"/>
<path d="M5633 1190 c-31 -13 -56 -66 -49 -103 17 -86 125 -107 161 -31 13 27
14 42 5 73 -5 21 -16 44 -24 50 -19 16 -68 22 -93 11z m67 -40 c49 -49 -1
-138 -58 -102 -23 15 -27 80 -7 102 23 25 40 25 65 0z"/>
<path d="M5793 1183 c2 -10 15 -53 28 -95 22 -71 26 -78 50 -78 23 0 28 8 53
81 28 83 29 127 2 98 -8 -8 -21 -40 -30 -71 -9 -32 -20 -58 -25 -58 -4 0 -16
29 -25 64 -15 56 -30 76 -53 76 -3 0 -3 -8 0 -17z"/>
<path d="M6000 1105 l0 -95 60 0 c47 0 60 3 60 15 0 11 -11 15 -40 15 -36 0
-40 3 -40 25 0 22 4 25 40 25 31 0 38 3 34 15 -4 9 -19 15 -39 15 -18 0 -35 6
-37 13 -10 25 4 37 43 37 28 0 39 4 39 15 0 12 -13 15 -60 15 l-60 0 0 -95z"/>
<path d="M6203 1190 c-51 -21 -36 -83 24 -97 28 -6 39 -14 41 -31 4 -25 -21
-30 -63 -10 -33 15 -43 4 -20 -22 38 -42 125 -16 125 37 0 26 -15 39 -60 50
-38 10 -52 39 -24 50 9 3 25 1 35 -5 22 -14 49 -16 49 -3 0 26 -69 47 -107 31z"/>
<path d="M6426 1192 c-9 -15 44 -173 61 -179 17 -7 32 12 33 42 1 11 7 34 14
50 l13 30 19 -62 c27 -90 45 -85 78 22 25 80 27 105 7 105 -10 0 -27 -42 -36
-87 -9 -47 -20 -41 -36 20 -11 40 -19 52 -34 52 -15 0 -22 -12 -33 -58 -8 -32
-17 -55 -21 -52 -3 4 -13 32 -22 63 -15 53 -31 74 -43 54z"/>
<path d="M6717 1183 c-3 -10 -4 -52 -3 -93 1 -62 4 -75 19 -78 15 -3 17 6 17
81 0 61 -4 88 -14 96 -11 10 -15 8 -19 -6z"/>
<path d="M6797 1194 c-11 -12 3 -24 29 -24 23 0 24 -2 24 -80 0 -64 3 -80 15
-80 12 0 15 14 15 64 0 80 6 96 36 96 30 0 31 16 2 24 -30 8 -113 8 -121 0z"/>
<path d="M6990 1105 c0 -76 3 -95 14 -95 10 0 16 13 18 38 3 36 4 37 46 40
l42 3 0 -40 c0 -30 4 -41 15 -41 13 0 15 15 13 93 -2 55 -7 91 -13 90 -5 -2
-11 -18 -13 -38 -3 -34 -4 -35 -48 -35 l-44 0 0 40 c0 29 -4 40 -15 40 -12 0
-15 -17 -15 -95z"/>
<path d="M7262 1193 c54 -109 65 -137 63 -158 -3 -19 1 -25 16 -25 14 0 19 7
19 30 0 17 13 57 30 89 24 48 27 60 15 65 -9 3 -23 -9 -39 -36 l-24 -40 -18
28 c-10 16 -24 35 -33 42 -16 13 -35 16 -29 5z"/>
<path d="M7500 1187 c-80 -41 -49 -177 40 -177 35 0 76 32 84 66 10 39 -11 92
-44 109 -35 18 -48 18 -80 2z m72 -34 c37 -33 15 -113 -32 -113 -46 0 -68 74
-33 112 20 22 41 23 65 1z"/>
<path d="M7683 1188 c-6 -7 -10 -41 -9 -75 3 -90 35 -118 113 -97 26 7 43 53
39 104 -2 19 -4 46 -5 58 -1 14 -6 22 -13 20 -8 -3 -15 -31 -18 -73 -6 -75
-24 -100 -57 -79 -14 8 -19 27 -21 75 -3 68 -12 88 -29 67z"/>
<path d="M4822 842 c-8 -2 -12 -34 -12 -93 l0 -89 60 0 c47 0 60 3 60 15 0 11
-12 15 -46 15 -41 0 -45 2 -42 23 2 18 10 23 41 25 54 5 51 32 -4 32 -36 0
-40 2 -37 23 2 18 10 23 46 25 23 2 42 7 42 13 0 5 -3 9 -7 10 -28 4 -92 4
-101 1z"/>
<path d="M5006 829 c-46 -36 -33 -66 37 -88 48 -16 53 -51 8 -51 -17 0 -33 5
-36 10 -8 13 -35 13 -35 1 0 -21 34 -41 69 -41 39 0 71 23 71 52 0 20 -32 48
-66 57 -19 5 -29 14 -29 27 0 25 32 30 56 8 14 -12 23 -14 30 -7 7 7 2 17 -17
32 -34 26 -54 27 -88 0z"/>
<path d="M5173 844 c-22 -9 -14 -24 11 -24 30 0 36 -16 36 -96 0 -49 3 -64 15
-64 11 0 15 18 17 78 3 76 3 77 31 80 16 2 26 9 24 15 -4 12 -111 20 -134 11z"/>
<path d="M5609 831 c-19 -16 -21 -22 -12 -32 10 -10 17 -9 32 5 11 10 27 16
36 13 27 -11 16 -44 -30 -88 -62 -60 -59 -69 21 -69 48 0 65 3 62 13 -3 6 -19
13 -36 15 -18 2 -32 6 -32 9 0 2 16 23 35 46 42 49 43 59 9 86 -33 26 -55 26
-85 2z"/>
<path d="M5793 826 c-24 -21 -28 -31 -27 -75 1 -61 23 -91 68 -91 54 1 71 23
71 91 0 52 -3 63 -25 79 -33 26 -53 25 -87 -4z m63 -14 c18 -11 26 -66 15 -95
-7 -19 -18 -27 -35 -27 -26 0 -36 16 -36 61 0 54 25 81 56 61z"/>
<path d="M5986 829 c-21 -17 -26 -29 -26 -67 0 -85 43 -125 101 -96 46 23 55
119 14 159 -30 30 -54 31 -89 4z m62 -17 c18 -12 26 -75 13 -101 -16 -29 -57
-28 -65 2 -8 31 -7 52 4 81 10 27 25 32 48 18z"/>
<path d="M6185 838 c-27 -15 -35 -28 -35 -59 0 -37 23 -53 65 -46 35 6 40 1
29 -27 -7 -19 -37 -21 -64 -4 -27 17 -37 2 -15 -22 23 -25 76 -26 98 -2 36 40
34 116 -5 152 -24 22 -44 25 -73 8z m60 -37 c9 -28 -5 -52 -28 -49 -29 4 -44
32 -28 52 18 22 48 20 56 -3z"/>
<path d="M5432 794 c4 -21 22 -23 26 -1 2 10 -3 17 -13 17 -10 0 -15 -6 -13
-16z"/>
<path d="M5435 710 c-7 -12 2 -30 16 -30 5 0 9 9 9 20 0 21 -15 27 -25 10z"/>
</g>
</svg>
